# xmcd CD database file
#
# Track frame offsets:
#	150
#	18866
#	44586
#	62974
#	82411
#	102192
#	123504
#	142285
#	163164
#
# Disc length: 2492 seconds
#
# Revision: 0
# Processed by: cddbd v1.5.2PL0 Copyright (c) Steve Scherf et al.
# Submitted via: CDex 1.70beta3
#
DISCID=8709ba09
DTITLE=紅月ノリコ - 解放
DYEAR=2012
DGENRE=Jazz
TTITLE0=永遠の恋人
TTITLE1=衝動
TTITLE2=点と線
TTITLE3=透明
TTITLE4=依存的幻想
TTITLE5=泡
TTITLE6=孤独にメスを~piano inst.~
TTITLE7=表面張力
TTITLE8=既望
EXTD=YEAR: 2012
EXTT0=
EXTT1=
EXTT2=
EXTT3=
EXTT4=
EXTT5=
EXTT6=
EXTT7=
EXTT8=
PLAYORDER=
